<svg width="217" height="230" viewBox="0 0 217 230" fill="none" xmlns="http://www.w3.org/2000/svg">
<rect width="217" height="230" fill="#F4F4F5"/>
<path d="M26.8394 137.165C26.2901 141.791 25.7741 146.422 25.3247 151.059C25.1083 153.314 24.9363 155.58 24.7088 157.835C24.4813 160.09 24.2483 162.428 24.6256 164.754C24.8143 165.901 26.2235 165.934 26.9448 165.364C28.7424 163.946 30.1128 162.101 31.4388 160.261C32.8592 158.289 34.3572 156.389 35.8885 154.5C39.2563 150.345 42.7073 146.256 45.9697 142.012C46.6299 141.154 47.1959 140.378 47.9227 139.63C48.6051 138.926 49.3541 138.145 49.4096 137.115C49.4484 136.3 48.7327 135.818 48.0225 135.73C45.1652 135.364 42.2912 135.259 39.4172 135.115C36.5432 134.971 33.6526 134.633 30.7675 134.694C28.9865 134.727 28.981 137.497 30.7675 137.464C33.6581 137.408 36.5377 137.746 39.4172 137.885C42.2967 138.023 45.1652 138.134 48.0225 138.5L46.6355 137.115C46.6466 136.888 46.8075 136.721 46.6078 136.954C46.5856 136.982 46.5135 137.082 46.4025 137.209C46.1695 137.475 45.9142 137.724 45.6645 137.979C44.9433 138.71 44.3663 139.591 43.7393 140.406C42.208 142.4 40.6267 144.361 39.0344 146.311C35.8941 150.151 32.6262 153.918 29.7133 157.94C28.293 159.901 26.9059 161.89 24.9862 163.408L27.3054 164.018C26.9614 161.89 27.3054 159.696 27.5162 157.574C27.7382 155.314 27.9102 153.048 28.1321 150.788C28.5759 146.245 29.0864 141.702 29.619 137.17C29.7078 136.428 28.92 135.785 28.232 135.785C27.4108 135.785 26.9337 136.422 26.8449 137.17L26.8394 137.165Z" fill="black"/>
<path d="M34.9951 116.916C39.4448 103.137 43.5671 89.2595 47.9503 75.4591C49.0044 72.1406 50.2084 68.8775 51.3902 65.6033C52.572 62.3291 53.7094 58.9053 54.8467 55.5535C55.4016 53.9137 55.912 52.2683 56.4002 50.6062C56.6277 49.8362 56.8608 49.0661 57.1548 48.3182C57.3712 47.7642 57.632 46.983 58.0481 46.5619C58.0814 46.5287 58.2145 46.4788 58.4198 46.4345C58.5973 46.3957 58.7305 46.3902 58.9358 46.3736C59.818 46.296 60.6946 46.1908 61.5712 46.1077C63.2801 45.9526 64.9945 45.886 66.7089 45.8694C70.7369 45.8196 74.765 45.9969 78.793 46.1354C80.7959 46.2019 82.8044 46.2628 84.8073 46.3127C85.351 46.3237 85.8337 46.3348 86.3718 46.2351C86.738 46.1686 87.1042 46.1354 87.4759 46.1686C88.236 46.2296 88.8686 46.5675 89.4734 47.0162L88.7854 45.8196C88.7077 46.6063 88.7243 47.4982 88.5135 48.2517C88.2638 49.1215 87.8643 49.9746 87.5536 50.8223C86.9711 52.3901 86.394 53.9635 85.7393 55.5037C84.4189 58.6283 82.932 61.6809 81.4117 64.7113C78.338 70.8386 75.2587 76.9549 72.3015 83.1488C66.2317 95.8688 60.2285 108.617 53.8702 121.198C52.1115 124.672 50.3582 128.151 48.6604 131.658C46.9627 135.165 45.1373 138.76 43.8945 142.5L46.6187 142.865L46.6464 142.594C46.7186 141.846 45.9584 141.209 45.2594 141.209C44.4493 141.209 43.9444 141.846 43.8723 142.594L43.8446 142.865C43.778 143.541 44.4216 144.151 45.0485 144.228C45.7532 144.311 46.3468 143.907 46.5687 143.237C47.6784 139.89 49.2874 136.71 50.8187 133.541C52.35 130.373 54.02 127.043 55.6568 123.808C58.9524 117.276 62.2093 110.727 65.3773 104.135C68.5287 97.5752 71.6246 90.9935 74.7594 84.423C77.8942 77.8524 81.0955 71.581 84.2801 65.1656C85.8558 61.9967 87.365 58.789 88.7133 55.5148C89.3846 53.8804 89.9837 52.2128 90.594 50.5564C90.8881 49.7697 91.2266 49.0107 91.3209 48.1741C91.3708 47.7365 91.4097 47.2988 91.4541 46.8611C91.5095 46.2905 91.6815 45.6367 91.3708 45.1104C90.9824 44.4512 89.9838 44.019 89.3069 43.7586C88.5579 43.4706 87.7256 43.3432 86.9267 43.3875C86.4939 43.4096 86.0667 43.526 85.6395 43.5592C85.2789 43.5869 84.9016 43.5426 84.541 43.5315C83.5867 43.5094 82.6268 43.4817 81.6725 43.454C78.0439 43.3431 74.4209 43.1936 70.7868 43.1216C67.1527 43.0495 63.5686 43.1049 59.9678 43.5094C58.6306 43.659 57.116 43.5758 56.0895 44.6063C54.9965 45.7032 54.4584 47.5093 54.0034 48.9497C53.4819 50.6007 53.0214 52.2738 52.4776 53.9192C51.9339 55.5646 51.3014 57.343 50.7355 59.0604C49.6203 62.4509 48.372 65.7861 47.168 69.1434C44.7157 75.9909 42.6739 82.9936 40.5267 89.9409C38.3795 96.8882 36.2158 103.952 33.9965 110.938C33.4416 112.683 32.8813 114.428 32.3209 116.173C31.7605 117.918 34.4514 118.6 34.9951 116.91V116.916Z" fill="black"/>
<path d="M29.3638 137.913C29.9685 134.921 30.5456 131.929 31.1947 128.949C31.511 127.503 31.8383 126.062 32.1989 124.628C32.3654 123.957 32.5319 123.287 32.6706 122.605C32.7372 122.267 32.8092 121.929 32.9036 121.603C32.9424 121.459 33.0034 121.32 33.0423 121.182C33.1255 120.899 33.2809 120.893 32.9313 121.248L32.321 121.603L32.4375 121.58H31.6996L31.8716 121.625C33.6082 122.046 34.3462 119.376 32.6096 118.954C30.6677 118.484 30.2627 120.556 29.9741 121.99C29.6468 123.641 29.1807 125.265 28.809 126.91C28.0378 130.323 27.3886 133.763 26.6896 137.192C26.5398 137.924 26.9004 138.688 27.6605 138.899C28.3429 139.087 29.2195 138.666 29.3693 137.929L29.3638 137.913Z" fill="black"/>
<path d="M28.3982 156.804C29.3414 156.411 30.2902 156.034 31.2834 155.791C31.533 155.73 31.7883 155.685 32.0379 155.635C32.332 155.58 31.8603 155.635 32.1988 155.619C32.3375 155.613 32.4707 155.597 32.6094 155.591C33.2364 155.558 33.8522 155.525 34.4681 155.419C35.3391 155.27 35.7442 154.084 35.2947 153.386C34.7788 152.577 33.83 152.256 32.9145 152.566C32.1877 152.816 31.5774 153.281 31.006 153.78C29.9962 154.644 29.1639 155.685 28.2929 156.683C27.9433 157.076 27.5993 157.475 27.2165 157.835C26.7837 158.245 26.3288 158.727 26.1956 159.325C26.0625 159.924 26.2788 160.594 26.8337 160.888C27.3885 161.181 28.0709 161.12 28.5148 160.671C28.8533 160.328 29.1417 159.951 29.4469 159.58C29.5911 159.403 29.741 159.225 29.8963 159.054C29.974 158.971 30.0516 158.888 30.1349 158.81C30.1848 158.76 30.5011 158.511 30.2403 158.705L28.3428 156.81C27.8878 157.502 27.4218 158.189 26.9835 158.893C26.817 159.159 26.6616 159.43 26.5118 159.713C26.4397 159.852 26.3565 159.984 26.2844 160.123C26.1679 160.334 26.4065 160.045 26.2955 160.123C26.24 160.162 26.1845 160.239 26.129 160.284L27.8102 160.068C27.9433 160.14 28.0487 160.239 28.1264 160.361C28.2152 160.489 28.2374 160.516 28.193 160.444C28.1153 160.306 28.2817 160.799 28.2651 160.616C28.2651 160.566 28.2429 160.511 28.2263 160.466C28.1653 160.267 28.2484 160.799 28.2484 160.633C28.2484 160.511 28.2318 160.394 28.2318 160.273C28.2318 160.201 28.2984 159.89 28.2595 159.852C28.2984 159.896 28.1874 160.239 28.2484 159.94C28.2595 159.885 28.2707 159.829 28.2818 159.774C28.3039 159.674 28.3816 159.536 28.3816 159.436C28.3816 159.641 28.2374 159.735 28.3372 159.563C28.4094 159.442 28.5093 159.392 28.2318 159.685L28.2651 159.652C28.1319 159.785 27.971 159.879 27.788 159.924C27.971 159.868 27.3718 159.94 27.5716 159.962C28.2928 160.04 28.9919 159.27 28.9586 158.577C28.9198 157.763 28.3483 157.275 27.5716 157.192C26.9113 157.12 26.2788 157.602 25.957 158.14C25.7295 158.527 25.602 158.971 25.5354 159.408C25.3801 160.472 25.3689 161.818 26.4009 162.461C26.9502 162.804 27.6271 162.644 28.082 162.245C28.6424 161.757 28.9142 161.032 29.2971 160.411C29.7576 159.663 30.2459 158.937 30.7286 158.206C31.0503 157.713 30.9449 156.926 30.5122 156.527C30.0794 156.129 29.3304 155.94 28.831 156.311C28.3317 156.683 27.9322 157.059 27.5439 157.53C27.2165 157.929 26.9002 158.339 26.5396 158.71L28.8588 160.057C28.8921 159.924 28.8699 159.968 28.7922 160.189C28.82 160.14 28.8477 160.095 28.8809 160.051C28.7533 160.212 28.7367 160.234 28.8366 160.123L28.9032 160.057C29.0419 159.907 29.1972 159.774 29.347 159.63C29.7576 159.225 30.1349 158.777 30.5122 158.339C31.0115 157.763 31.4997 157.17 32.0324 156.622C32.2377 156.411 32.4485 156.201 32.6649 156.001C32.7869 155.89 32.9145 155.774 33.0421 155.669C33.1087 155.613 33.1753 155.563 33.2363 155.508C32.9256 155.796 33.1198 155.597 33.2086 155.53C33.3362 155.442 33.4638 155.353 33.6025 155.275C33.6635 155.242 33.7301 155.209 33.7911 155.176C33.9909 155.059 33.4305 155.27 33.6913 155.22C33.7412 155.209 33.8133 155.198 33.8633 155.176C33.5692 155.209 33.4916 155.22 33.6303 155.214C33.719 155.214 33.6857 155.214 33.5304 155.198C33.375 155.17 33.3418 155.17 33.425 155.187C33.1587 155.065 33.0865 155.032 33.203 155.093C32.9811 154.91 32.9201 154.86 33.02 154.954C32.8535 154.727 32.8092 154.672 32.8868 154.782L33.7135 152.749C33.3917 152.805 33.8466 152.755 33.547 152.771C33.4083 152.777 33.2752 152.793 33.1365 152.799C32.8646 152.816 32.5872 152.821 32.3153 152.838C31.7161 152.882 31.1114 152.982 30.5233 153.12C29.5301 153.364 28.5813 153.746 27.6381 154.134C26.9724 154.411 26.4175 155.065 26.6672 155.84C26.8725 156.483 27.6548 157.104 28.3761 156.81L28.3982 156.804Z" fill="black"/>
<path d="M24.5202 172.644C23.4604 175.397 22.6227 178.411 21.0692 180.937C19.8708 182.882 18.234 184.51 16.2644 185.674C15.765 185.967 15.2324 186.195 14.7219 186.472C14.1338 186.798 13.6345 187.308 13.0464 187.663C12.02 188.278 10.8659 188.682 9.67306 188.81C8.97953 188.882 8.38585 188.92 7.71451 189.136C7.13749 189.319 6.55496 189.436 5.94465 189.436C4.61308 189.436 3.39249 188.859 2.36606 188.034L2.72109 189.38C3.10392 187.923 3.49234 186.461 3.87517 185.003L3.23711 185.829L7.39274 182.882C8.71877 181.94 10.1169 180.61 11.6483 180.062C14.833 178.915 18.1231 177.984 21.3466 176.948C24.387 175.973 27.3997 174.965 30.601 174.682C33.475 174.427 36.3657 174.638 39.1509 175.386C40.549 175.763 41.914 176.256 43.2178 176.871C43.878 177.186 44.5493 177.679 45.2651 177.818C45.8199 177.923 46.3969 177.912 46.9573 178.034C48.7549 178.422 50.2529 179.386 50.9687 181.131C51.1684 181.618 51.296 182.145 51.3959 182.66C51.5401 183.419 51.8175 183.812 52.2447 184.455C52.8661 185.391 53.3045 186.466 53.0659 187.602C52.9439 188.178 52.672 188.693 52.3391 189.17C51.934 189.757 51.2794 190.178 50.9132 190.776C50.6025 191.286 50.4915 191.967 50.2363 192.516C49.981 193.064 49.687 193.58 49.3541 194.073C48.6328 195.147 47.6563 196.078 46.5689 196.782C46.003 197.147 45.4038 197.435 44.8101 197.74C44.1166 198.095 43.6783 198.76 43.1068 199.28C41.0317 201.164 38.3797 201.591 35.7054 200.97L36.5321 203.003C41.348 194.095 48.2278 186.527 56.7333 180.998C58.9082 179.585 61.1719 178.3 63.491 177.142C66.1375 175.818 68.6287 174.128 71.2087 172.666C76.3574 169.746 81.6282 167.026 86.9989 164.533C97.6571 159.574 108.731 155.514 120.055 152.356C131.834 149.065 143.935 146.505 156.091 145.142C162.294 144.444 168.547 144.079 174.789 144.201C181.075 144.323 187.261 145.143 193.492 145.968C195.068 146.179 196.649 146.389 198.225 146.605L197.254 145.636L197.298 145.874C197.625 147.624 200.3 146.882 199.972 145.137L199.928 144.899C199.85 144.483 199.39 143.99 198.957 143.929C192.576 143.059 186.179 142.035 179.749 141.63C173.407 141.231 167.043 141.381 160.718 141.913C148.24 142.96 135.862 145.381 123.75 148.494C111.639 151.608 100.631 155.469 89.59 160.333C84.0695 162.766 78.6544 165.425 73.3558 168.306C70.7149 169.741 68.1072 171.225 65.5273 172.765C63.086 174.222 60.5449 175.48 58.087 176.909C49.1488 182.117 41.5588 189.38 36.1105 198.178C35.4169 199.297 34.7623 200.444 34.1353 201.602C33.7247 202.361 34.0632 203.424 34.962 203.635C37.9026 204.322 40.9763 204.106 43.5507 202.416C44.1221 202.039 44.6714 201.607 45.1707 201.142C45.4592 200.876 45.7089 200.521 46.0085 200.272C46.2915 200.039 46.6632 199.917 46.985 199.746C48.2611 199.07 49.454 198.178 50.436 197.125C51.418 196.073 52.217 194.848 52.7995 193.53C53.0825 192.887 53.2046 192.3 53.593 191.967C54.1977 191.441 54.7359 190.649 55.1132 189.94C55.8234 188.599 56.0564 187.136 55.7568 185.652C55.6126 184.937 55.3129 184.233 54.9634 183.596C54.7803 183.269 54.5695 182.954 54.3475 182.654C53.9924 182.172 54.1589 182.372 54.0423 181.801C53.5597 179.419 52.1505 177.258 49.9367 176.162C48.6551 175.524 47.3956 175.375 46.0141 175.12C45.6756 175.059 45.8254 175.087 45.3871 174.865C44.9821 174.655 44.5715 174.461 44.1554 174.272C43.3287 173.901 42.4909 173.558 41.6365 173.258C38.4407 172.145 35.0008 171.674 31.6219 171.846C27.7937 172.04 24.2317 173.12 20.6087 174.283C18.4948 174.959 16.3809 175.641 14.267 176.317L11.099 177.336C9.9838 177.696 9.19038 178.233 8.23608 178.909C6.37187 180.233 4.50213 181.558 2.63792 182.876C2.23845 183.159 1.75019 183.413 1.45059 183.801C1.12324 184.222 1.04558 184.859 0.912426 185.364L0.0468673 188.643C-0.0696459 189.081 0.0246824 189.685 0.401963 189.99C1.67251 191.014 3.04846 191.829 4.68519 192.089C5.40646 192.206 6.1222 192.222 6.84902 192.134C7.57584 192.045 8.28605 191.757 9.02951 191.613C9.77297 191.469 10.5275 191.491 11.271 191.325C12.0144 191.159 12.6802 190.915 13.3515 190.616C14.0229 190.316 14.6443 189.951 15.2324 189.524C15.8705 189.064 16.4697 188.715 17.1632 188.339C19.5878 187.026 21.624 185.109 23.1498 182.815C25.0306 179.984 25.9849 176.522 27.1945 173.369C27.8325 171.702 25.1527 170.981 24.5202 172.632V172.644Z" fill="black"/>
<path d="M61.9652 39.0386C61.9652 37.8253 62.2149 36.6508 62.8085 35.5816C63.4965 34.3351 64.6117 33.5151 65.6659 32.5844C67.6966 30.7949 70.2154 29.7146 72.8564 29.1662C75.4974 28.6177 78.3991 28.4792 81.0179 29.3656C81.6171 29.5706 82.1775 29.8753 82.7822 30.0581C83.3315 30.2243 83.8419 30.3684 84.3524 30.6509C85.2623 31.1495 86.0113 31.8697 86.5716 32.7395C87.3983 34.0137 87.7812 35.4043 87.6092 36.9223C87.5204 37.7311 87.5315 38.5179 87.3318 39.3212C87.1098 40.191 86.7881 40.9665 86.9046 41.8862C86.9989 42.6286 87.4761 43.2712 88.2917 43.2712C88.9685 43.2712 89.773 42.6341 89.6787 41.8862C89.5789 41.0995 89.9339 40.4458 90.0948 39.6868C90.2779 38.8115 90.2668 37.9306 90.3722 37.0497C90.572 35.3489 90.2058 33.6647 89.4346 32.1467C88.7743 30.8393 87.7979 29.698 86.6272 28.8282C85.4565 27.9584 84.2414 27.7202 82.9931 27.1828C79.825 25.8199 76.5183 25.7922 73.156 26.313C70.1156 26.7839 66.7311 27.9695 64.4009 30.0304C63.0083 31.2603 61.4881 32.3794 60.5282 34.0027C59.6239 35.5317 59.2022 37.2769 59.1966 39.0442C59.1911 40.8115 61.9652 40.8281 61.9708 39.0442L61.9652 39.0386Z" fill="black"/>
</svg>
