<svg xmlns="http://www.w3.org/2000/svg" width="21" height="32" viewBox="0 0 21 32" fill="none">
<path d="M17.4741 17.632C17.2319 18.8465 16.2954 19.8564 14.875 20.4755C13.4565 21.0937 11.5993 21.297 9.64585 20.9075C7.69243 20.5181 6.05512 19.6181 4.98221 18.5032C3.90779 17.3868 3.43015 16.0949 3.67229 14.8803C3.91443 13.6658 4.85097 12.6559 6.2714 12.0368C7.68983 11.4186 9.54709 11.2153 11.5005 11.6048C13.4539 11.9942 15.0912 12.8942 16.1641 14.0091C17.2386 15.1255 17.7162 16.4174 17.4741 17.632Z" fill="#F96518" stroke="#A9410B"/>
<mask id="path-2-inside-1_537_185" fill="white">
<path fill-rule="evenodd" clip-rule="evenodd" d="M15.3897 10.5338L8.31982 9.12425L7.011 15.6891L7.04704 15.6963C7.09032 16.7574 8.40842 17.8293 10.1892 18.1843C11.97 18.5393 13.5984 18.0549 14.0453 17.0915L14.0809 17.0986L14.1357 16.8235C14.1374 16.8158 14.139 16.808 14.1406 16.8002C14.1422 16.7924 14.1436 16.7846 14.145 16.7768L15.3897 10.5338Z"/>
</mask>
<path fill-rule="evenodd" clip-rule="evenodd" d="M15.3897 10.5338L8.31982 9.12425L7.011 15.6891L7.04704 15.6963C7.09032 16.7574 8.40842 17.8293 10.1892 18.1843C11.97 18.5393 13.5984 18.0549 14.0453 17.0915L14.0809 17.0986L14.1357 16.8235C14.1374 16.8158 14.139 16.808 14.1406 16.8002C14.1422 16.7924 14.1436 16.7846 14.145 16.7768L15.3897 10.5338Z" fill="#F96518"/>
<path d="M8.31982 9.12425L8.51534 8.14355L7.53464 7.94803L7.33912 8.92873L8.31982 9.12425ZM15.3897 10.5338L16.3704 10.7293L16.5659 9.74857L15.5852 9.55305L15.3897 10.5338ZM7.011 15.6891L6.0303 15.4936L5.83479 16.4743L6.81549 16.6698L7.011 15.6891ZM7.04704 15.6963L8.04621 15.6556L8.01414 14.8694L7.24255 14.7156L7.04704 15.6963ZM14.0453 17.0915L14.2408 16.1108L13.4692 15.957L13.1381 16.6707L14.0453 17.0915ZM14.0809 17.0986L13.8854 18.0793L14.8661 18.2749L15.0616 17.2942L14.0809 17.0986ZM14.1357 16.8235L13.1588 16.6099L13.1568 16.6189L13.155 16.628L14.1357 16.8235ZM14.145 16.7768L13.1643 16.5813L13.1625 16.5904L13.1609 16.5995L14.145 16.7768ZM8.12431 10.105L15.1942 11.5144L15.5852 9.55305L8.51534 8.14355L8.12431 10.105ZM7.9917 15.8847L9.30052 9.31977L7.33912 8.92873L6.0303 15.4936L7.9917 15.8847ZM7.24255 14.7156L7.20652 14.7084L6.81549 16.6698L6.85152 16.677L7.24255 14.7156ZM10.3847 17.2036C9.62883 17.0529 9.00657 16.7557 8.59035 16.4235C8.15469 16.0758 8.05149 15.7851 8.04621 15.6556L6.04787 15.7371C6.08586 16.6687 6.66335 17.4444 7.34277 17.9867C8.04163 18.5444 8.96882 18.9607 9.9937 19.165L10.3847 17.2036ZM13.1381 16.6707C13.0836 16.7883 12.8768 17.0172 12.3411 17.1713C11.8293 17.3184 11.1407 17.3543 10.3847 17.2036L9.9937 19.165C11.0186 19.3693 12.0345 19.3405 12.8938 19.0934C13.7293 18.8531 14.5601 18.3581 14.9524 17.5123L13.1381 16.6707ZM14.2764 16.1179L14.2408 16.1108L13.8498 18.0722L13.8854 18.0793L14.2764 16.1179ZM13.155 16.628L13.1002 16.9031L15.0616 17.2942L15.1164 17.019L13.155 16.628ZM13.1599 16.6047C13.1596 16.6064 13.1592 16.6081 13.1588 16.6099L15.1126 17.0372C15.1156 17.0234 15.1185 17.0096 15.1213 16.9957L13.1599 16.6047ZM13.1609 16.5995C13.1606 16.6012 13.1602 16.603 13.1599 16.6047L15.1213 16.9957C15.1241 16.9819 15.1267 16.968 15.1292 16.9541L13.1609 16.5995ZM14.409 10.3382L13.1643 16.5813L15.1257 16.9723L16.3704 10.7293L14.409 10.3382Z" fill="#A9410B" mask="url(#path-2-inside-1_537_185)"/>
<path d="M18.1748 7.41355C17.7183 9.70325 14.9118 11.2651 11.6961 10.624C8.48038 9.98293 6.48739 7.46418 6.94388 5.17448C7.40037 2.88477 10.2069 1.32289 13.4226 1.96399C16.6383 2.60509 18.6313 5.12384 18.1748 7.41355Z" fill="#F96518" stroke="#A9410B"/>
<rect x="8.58398" y="21.2057" width="1.31073" height="8.51974" transform="rotate(11.275 8.58398 21.2057)" fill="#DDDADA"/>
</svg>