<svg xmlns="http://www.w3.org/2000/svg" width="19" height="31" viewBox="0 0 19 31" fill="none">
<path d="M16.8394 16.4968C16.7116 17.7286 15.8734 18.8215 14.5169 19.5704C13.1623 20.3182 11.3321 20.6938 9.35087 20.4883C7.36964 20.2828 5.65551 19.5395 4.48328 18.5295C3.3094 17.5182 2.71333 16.2765 2.84112 15.0446C2.9689 13.8128 3.80715 12.7199 5.16364 11.971C6.51821 11.2232 8.34841 10.8476 10.3296 11.0531C12.3109 11.2586 14.025 12.0019 15.1972 13.0119C16.3711 14.0233 16.9672 15.2649 16.8394 16.4968Z" fill="#F489A3" stroke="#C2546F"/>
<mask id="path-2-inside-1_537_149" fill="white">
<path fill-rule="evenodd" clip-rule="evenodd" d="M14.1022 9.62396L6.93164 8.88011L6.24093 15.5385L6.27747 15.5423C6.41955 16.5947 7.83189 17.5389 9.63804 17.7263C11.4442 17.9136 13.0203 17.2794 13.3754 16.2786L13.4115 16.2823L13.4404 16.0033C13.4414 15.9954 13.4423 15.9875 13.4431 15.9796C13.4439 15.9717 13.4446 15.9638 13.4453 15.9559L14.1022 9.62396Z"/>
</mask>
<path fill-rule="evenodd" clip-rule="evenodd" d="M14.1022 9.62396L6.93164 8.88011L6.24093 15.5385L6.27747 15.5423C6.41955 16.5947 7.83189 17.5389 9.63804 17.7263C11.4442 17.9136 13.0203 17.2794 13.3754 16.2786L13.4115 16.2823L13.4404 16.0033C13.4414 15.9954 13.4423 15.9875 13.4431 15.9796C13.4439 15.9717 13.4446 15.9638 13.4453 15.9559L14.1022 9.62396Z" fill="#F489A3"/>
<path d="M6.93164 8.88011L7.03482 7.88545L6.04016 7.78227L5.93698 8.77693L6.93164 8.88011ZM14.1022 9.62396L15.0968 9.72714L15.2 8.73248L14.2054 8.62929L14.1022 9.62396ZM6.24093 15.5385L5.24627 15.4353L5.14308 16.4299L6.13774 16.5331L6.24093 15.5385ZM6.27747 15.5423L7.26848 15.4085L7.16323 14.6288L6.38065 14.5476L6.27747 15.5423ZM13.3754 16.2786L13.4785 15.2839L12.696 15.2027L12.4329 15.9442L13.3754 16.2786ZM13.4115 16.2823L13.3083 17.277L14.3029 17.3802L14.4061 16.3855L13.4115 16.2823ZM13.4404 16.0033L12.4478 15.8817L12.4467 15.8909L12.4457 15.9001L13.4404 16.0033ZM13.4453 15.9559L12.4507 15.8527L12.4497 15.8619L12.4489 15.8711L13.4453 15.9559ZM6.82846 9.87477L13.999 10.6186L14.2054 8.62929L7.03482 7.88545L6.82846 9.87477ZM7.23559 15.6416L7.9263 8.98329L5.93698 8.77693L5.24627 15.4353L7.23559 15.6416ZM6.38065 14.5476L6.34411 14.5438L6.13774 16.5331L6.17429 16.5369L6.38065 14.5476ZM9.74123 16.7316C8.97455 16.6521 8.32728 16.4142 7.88189 16.1223C7.4157 15.8167 7.28582 15.5369 7.26848 15.4085L5.28646 15.676C5.41119 16.6 6.05853 17.3185 6.78557 17.795C7.53341 18.2852 8.49538 18.6131 9.53486 18.7209L9.74123 16.7316ZM12.4329 15.9442C12.3896 16.0664 12.205 16.3136 11.686 16.5169C11.1902 16.7112 10.5079 16.8111 9.74123 16.7316L9.53486 18.7209C10.5743 18.8287 11.5831 18.7053 12.4157 18.3791C13.225 18.062 14.0061 17.4916 14.3178 16.6129L12.4329 15.9442ZM13.5146 15.2876L13.4785 15.2839L13.2722 17.2732L13.3083 17.277L13.5146 15.2876ZM12.4457 15.9001L12.4168 16.1791L14.4061 16.3855L14.4351 16.1065L12.4457 15.9001ZM12.4484 15.8764C12.4482 15.8782 12.448 15.8799 12.4478 15.8817L14.433 16.1249C14.4347 16.1109 14.4363 16.0969 14.4377 16.0828L12.4484 15.8764ZM12.4489 15.8711C12.4488 15.8729 12.4486 15.8747 12.4484 15.8764L14.4377 16.0828C14.4392 16.0687 14.4405 16.0547 14.4417 16.0406L12.4489 15.8711ZM13.1075 9.52077L12.4507 15.8527L14.44 16.0591L15.0968 9.72714L13.1075 9.52077Z" fill="#C2546F" mask="url(#path-2-inside-1_537_149)"/>
<path d="M16.5841 6.25756C16.3432 8.57986 13.6946 10.3967 10.4331 10.0584C7.17164 9.72007 4.95238 7.39822 5.19329 5.07592C5.4342 2.75362 8.08279 0.936739 11.3443 1.27507C14.6057 1.61341 16.825 3.93526 16.5841 6.25756Z" fill="#F489A3" stroke="#C2546F"/>
<rect x="8.32178" y="20.8842" width="1.31073" height="8.51974" transform="rotate(5.92247 8.32178 20.8842)" fill="#DDDADA"/>
</svg>