<svg xmlns="http://www.w3.org/2000/svg" width="23" height="33" viewBox="0 0 23 33" fill="none">
<path d="M18.2027 19.0078C17.8753 20.2022 16.8697 21.1434 15.4091 21.6606C13.9505 22.177 12.0835 22.2484 10.1625 21.7219C8.24152 21.1953 6.67191 20.1819 5.6805 18.9939C4.68768 17.8043 4.30256 16.4819 4.62994 15.2875C4.95732 14.0931 5.96291 13.1519 7.42354 12.6348C8.88212 12.1184 10.7491 12.0469 12.6701 12.5735C14.5911 13.1 16.1607 14.1135 17.1521 15.3014C18.1449 16.491 18.5301 17.8134 18.2027 19.0078Z" fill="#F0BB0D" stroke="#AE890F"/>
<mask id="path-2-inside-1_537_169" fill="white">
<path fill-rule="evenodd" clip-rule="evenodd" d="M16.6249 11.78L9.67236 9.87431L7.90278 16.3303L7.93821 16.34C7.90638 17.4015 9.14543 18.5638 10.8967 19.0438C12.6479 19.5238 14.3065 19.1558 14.8203 18.2264L14.8553 18.236L14.9295 17.9654C14.9317 17.9578 14.9339 17.9502 14.936 17.9425C14.9381 17.9348 14.9401 17.9272 14.9421 17.9195L16.6249 11.78Z"/>
</mask>
<path fill-rule="evenodd" clip-rule="evenodd" d="M16.6249 11.78L9.67236 9.87431L7.90278 16.3303L7.93821 16.34C7.90638 17.4015 9.14543 18.5638 10.8967 19.0438C12.6479 19.5238 14.3065 19.1558 14.8203 18.2264L14.8553 18.236L14.9295 17.9654C14.9317 17.9578 14.9339 17.9502 14.936 17.9425C14.9381 17.9348 14.9401 17.9272 14.9421 17.9195L16.6249 11.78Z" fill="#F0BB0D"/>
<path d="M9.67236 9.87431L9.93671 8.90989L8.97229 8.64554L8.70794 9.60996L9.67236 9.87431ZM16.6249 11.78L17.5894 12.0444L17.8537 11.0799L16.8893 10.8156L16.6249 11.78ZM7.90278 16.3303L6.93835 16.0659L6.674 17.0303L7.63843 17.2947L7.90278 16.3303ZM7.93821 16.34L8.93776 16.37L8.96135 15.5835L8.20256 15.3756L7.93821 16.34ZM14.8203 18.2264L15.0847 17.2619L14.3259 17.054L13.9452 17.7425L14.8203 18.2264ZM14.8553 18.236L14.591 19.2004L15.5554 19.4647L15.8198 18.5003L14.8553 18.236ZM14.9295 17.9654L13.9701 17.6833L13.9675 17.6921L13.9651 17.7011L14.9295 17.9654ZM14.9421 17.9195L13.9777 17.6551L13.9752 17.6641L13.9729 17.673L14.9421 17.9195ZM9.40801 10.8387L16.3606 12.7444L16.8893 10.8156L9.93671 8.90989L9.40801 10.8387ZM8.86721 16.5946L10.6368 10.1387L8.70794 9.60996L6.93835 16.0659L8.86721 16.5946ZM8.20256 15.3756L8.16713 15.3658L7.63843 17.2947L7.67386 17.3044L8.20256 15.3756ZM11.161 18.0794C10.4177 17.8756 9.81796 17.5352 9.42627 17.1744C9.01628 16.7968 8.93388 16.4995 8.93776 16.37L6.93866 16.31C6.91072 17.2419 7.43193 18.0566 8.07131 18.6455C8.729 19.2513 9.62445 19.732 10.6323 20.0082L11.161 18.0794ZM13.9452 17.7425C13.8825 17.8559 13.66 18.0696 13.1148 18.1854C12.5939 18.2961 11.9044 18.2832 11.161 18.0794L10.6323 20.0082C11.6402 20.2845 12.6556 20.3276 13.5303 20.1418C14.3806 19.9612 15.2443 19.5262 15.6955 18.7103L13.9452 17.7425ZM15.1197 17.2715L15.0847 17.2619L14.556 19.1908L14.591 19.2004L15.1197 17.2715ZM13.9651 17.7011L13.8909 17.9716L15.8198 18.5003L15.8939 18.2298L13.9651 17.7011ZM13.9716 17.6782C13.9711 17.6798 13.9706 17.6815 13.9701 17.6833L15.8889 18.2476C15.8928 18.2341 15.8967 18.2205 15.9004 18.2069L13.9716 17.6782ZM13.9729 17.673C13.9725 17.6748 13.972 17.6765 13.9716 17.6782L15.9004 18.2069C15.9042 18.1932 15.9078 18.1796 15.9113 18.1659L13.9729 17.673ZM15.6605 11.5157L13.9777 17.6551L15.9065 18.1838L17.5894 12.0444L15.6605 11.5157Z" fill="#AE890F" mask="url(#path-2-inside-1_537_169)"/>
<path d="M19.6239 8.8645C19.0067 11.1162 16.0968 12.4758 12.9345 11.609C9.77212 10.7422 7.96216 8.08888 8.57935 5.83717C9.19655 3.58546 12.1065 2.22586 15.2688 3.09266C18.4311 3.95946 20.2411 6.61278 19.6239 8.8645Z" fill="#F0BB0D" stroke="#AE890F"/>
<rect x="9.08203" y="21.9442" width="1.31073" height="8.51974" transform="rotate(15.3284 9.08203 21.9442)" fill="#DDDADA"/>
</svg>